<?xml version="1.0" encoding="UTF-8"?>
<!-- Generator: Adobe Illustrator 29.3.1, SVG Export Plug-In . SVG Version: 2.1.0 Build 151)  -->
<svg xmlns="http://www.w3.org/2000/svg" xmlns:xlink="http://www.w3.org/1999/xlink" version="1.1" viewBox="0 0 4094 1500">
  <path d="M847.19,447.44c-94.44-58.46-197.88-88.01-310.31-88.01-109.86,5.14-210.09,37.26-300.67,95.71-91.23,58.46-136.2,174.73-136.2,348.17v597.41h267.27v-650.73c0-61.67,17.35-105.99,53.32-134.26,35.98-28.26,76.45-42.4,122.71-42.4s87.38,14.13,124.64,42.4c36.62,28.26,55.25,73.23,55.25,134.26v520.33c0,38.54,12.21,69.38,36.62,93.79,24.41,24.41,55.25,36.62,93.8,36.62h134.92v-597.41c0-178.58-46.9-297.42-141.34-355.88ZM1515.35,359.43c-145.2,0-258.91,46.89-340.51,141.32-79.02,91.86-118.86,219.69-118.86,382.86s41.12,302.56,122.71,394.42c81.59,94.43,195.31,141.32,340.51,141.32,120.14,0,219.72-29.55,298.75-88.01,79.02-55.89,132.35-137.47,160.62-244.75h-191.45c-30.84,0-53.97,6.42-70.67,19.91-16.06,12.21-26.34,23.77-36.62,36.62-9.64,9.64-15.42,16.06-34.69,28.26-30.84,17.99-68.1,26.98-111.15,26.98-66.17,0-115.64-19.91-149.05-61.03-35.34-38.54-54.61-97-57.18-176.01h662.38c2.57-5.14,3.85-14.13,3.85-26.98v-42.4c0-168.3-41.12-299.99-122.71-394.42-84.16-92.5-203.02-138.11-355.93-138.11ZM1327.75,787.9c2.57-66.16,21.84-116.91,57.82-152.89,35.98-35.33,82.24-53.32,138.13-53.32,61.03,0,107.93,17.34,141.34,53.32,30.2,32.76,48.18,84.15,53.32,152.89h-390.62ZM2888.95,80h-129.14v436.82c-30.84-48.82-71.96-88.01-122.71-118.84-48.18-25.7-104.72-38.54-168.33-38.54-120.14,0-218.44,49.46-294.89,149.03-73.88,97-111.15,226.12-111.15,386.71s37.26,292.28,111.15,386.71c37.91,48.82,89.3,83.51,152.91,105.35,63.6,21.84,129.14,32.76,195.31,32.76,122.07,0,235.79-32.12,340.51-95.71s156.76-186.29,156.76-367.44V210.4c0-33.4-12.85-62.95-38.55-89.93-25.7-26.98-55.89-40.47-91.87-40.47ZM2704.56,1116.8c-37.91,53.32-91.87,80.3-160.62,80.3s-125.92-26.98-164.47-80.3c-37.91-53.32-57.18-131.05-57.18-233.18,0-91.86,19.27-163.16,57.18-214.55,37.91-53.32,90.59-80.3,156.76-80.3s123.35,25.7,164.47,76.44c37.91,53.96,57.18,126.55,57.18,218.41,0,101.5-17.35,179.87-53.32,233.18ZM3922.03,891.32c-51.4-43.68-141.34-81.58-271.76-114.99-9.64-1.93-53.97-10.92-72.6-15.42-132.99-28.26-199.16-62.31-199.16-103.42,0-30.83,11.56-53.32,34.69-68.73,25.7-15.42,63.6-23.13,115-23.13s95.73,11.56,126.57,34.69c12.21,8.99,19.92,14.77,39.83,44.32,19.92,29.55,53.32,51.39,101.51,51.39h164.47c-5.14-102.14-44.97-185-118.86-248.6-79.67-58.46-185.67-88.01-318.02-88.01-122.71,0-222.29,29.55-298.75,88.01-73.88,63.6-111.15,143.89-111.15,240.89,0,76.44,25.7,138.11,76.45,183.72,45.62,46.25,136.2,85.44,271.76,118.84,28.91,7.71,52.04,12.85,103.44,23.13,107.29,23.13,160.62,57.17,160.62,103.42,0,30.83-15.42,54.6-46.26,72.59-33.41,17.99-72.6,26.98-118.86,26.98-63.6,0-115-12.85-152.91-38.54-35.98-25.7-54.61-63.6-57.18-114.99h-260.2v11.56c0,112.42,37.26,197.85,111.15,256.31,71.31,58.46,179.89,88.01,325.09,88.01,152.91,0,267.91-28.26,344.36-84.15,81.59-61.03,122.71-147.75,122.71-260.16.64-76.44-23.77-137.47-71.96-183.72Z" fill="#fff"/>
</svg>